<?xml version="1.0" encoding="iso-8859-1"?>
<!-- Generator: Adobe Illustrator 19.0.0, SVG Export Plug-In . SVG Version: 6.00 Build 0)  -->
<svg xmlns="http://www.w3.org/2000/svg" xmlns:xlink="http://www.w3.org/1999/xlink" version="1.1" id="Layer_1" x="0px" y="0px" viewBox="0 0 512 512" style="enable-background:new 0 0 512 512;" xml:space="preserve" width="512px" height="512px">
<g>
	<g>
		<polygon points="39.184,148.888 39.184,391.827 54.857,391.827 54.857,164.561 342.079,164.561 342.079,148.888   " fill="#4082b8"/>
	</g>
</g>
<g>
	<g>
		<path d="M480.674,76.112c-7.239-7.238-17.274-11.165-27.484-10.771c-10.227,0.393-19.915,5.074-26.576,12.845l-83.005,96.823    H65.306v0.001v219.429h381.388V175.01h-20.398l52.303-44.839c7.772-6.661,12.453-16.348,12.846-26.576    C491.838,93.368,487.912,83.351,480.674,76.112z M431.02,190.682v0.002v188.082H80.98V190.684h249.195l-57.474,67.042    c-15.762-6.548-33.444-2.998-47.117,10.675c-10.14,10.14-14.652,29.306-16.122,37.075c-4.381,23.173-0.049,31.62,2.925,34.591    c1.53,1.53,4.176,3.072,7.417,3.072c2.824,0,6.1-1.173,9.476-4.549c13.064-13.063,19.974-9.819,29.54-5.328    c7.453,3.5,18.715,8.79,29.566-2.062c9.34-9.34,14.101-20.537,13.77-32.386c-0.14-5.002-1.229-9.953-3.165-14.67l109.022-93.462    H431.02z M286.063,266.221l35.152-41.005c4.184,2.622,7.739,6.175,10.356,10.354l-41.01,35.157    c-0.699-0.79-1.417-1.57-2.174-2.328C287.626,267.636,286.849,266.92,286.063,266.221z M286.489,299.255    c0.208,7.432-2.967,14.647-9.185,20.864c-2.642,2.644-3.663,2.789-11.822-1.043c-9.654-4.532-23.834-11.188-42.194,3.807    c0.253-12.06,4.939-34.959,13.38-43.399c6.171-6.171,13.245-9.257,20.318-9.257c7.073-0.001,14.146,3.084,20.318,9.256    C283.031,285.207,286.293,292.229,286.489,299.255z M475.784,102.996c-0.23,5.965-2.852,11.39-7.385,15.276L343.554,225.299    c-3.274-4.695-7.369-8.788-12.065-12.063L438.515,88.388c3.886-4.533,9.311-7.155,15.276-7.384    c5.963-0.221,11.577,1.971,15.799,6.193C473.813,91.419,476.013,97.03,475.784,102.996z" fill="#4082b8"/>
	</g>
</g>
<g>
	<g>
		<rect x="104.49" y="323.908" width="15.673" height="15.673" fill="#4082b8"/>
	</g>
</g>
<g>
	<g>
		<rect x="135.837" y="323.908" width="15.673" height="15.673" fill="#4082b8"/>
	</g>
</g>
<g>
	<g>
		<rect x="104.49" y="292.561" width="15.673" height="15.673" fill="#4082b8"/>
	</g>
</g>
<g>
	<g>
		<rect x="135.837" y="292.561" width="15.673" height="15.673" fill="#4082b8"/>
	</g>
</g>
<g>
	<g>
		<rect x="104.49" y="261.214" width="15.673" height="15.673" fill="#4082b8"/>
	</g>
</g>
<g>
	<g>
		<rect x="135.837" y="261.214" width="15.673" height="15.673" fill="#4082b8"/>
	</g>
</g>
<g>
	<g>
		<rect x="104.49" y="229.868" width="15.673" height="15.673" fill="#4082b8"/>
	</g>
</g>
<g>
	<g>
		<rect x="135.837" y="229.868" width="15.673" height="15.673" fill="#4082b8"/>
	</g>
</g>
<g>
	<g>
		<path d="M472.816,404.89V159.054h-15.674V404.89H0v41.796h512V404.89H472.816z M496.327,431.012H15.673v-10.449h480.653V431.012z" fill="#4082b8"/>
	</g>
</g>
<g>
</g>
<g>
</g>
<g>
</g>
<g>
</g>
<g>
</g>
<g>
</g>
<g>
</g>
<g>
</g>
<g>
</g>
<g>
</g>
<g>
</g>
<g>
</g>
<g>
</g>
<g>
</g>
<g>
</g>
</svg>
